<svg width="512" height="512" viewBox="0 0 512 512" fill="none" xmlns="http://www.w3.org/2000/svg">
  <defs>
    <linearGradient id="bodyGradient" x1="150" y1="100" x2="350" y2="400" gradientUnits="userSpaceOnUse">
      <stop offset="0%" stop-color="#F8FAFC"/>
      <stop offset="100%" stop-color="#E2E8F0"/>
    </linearGradient>
    <linearGradient id="wingGradient" x1="100" y1="300" x2="250" y2="450" gradientUnits="userSpaceOnUse">
      <stop offset="0%" stop-color="#F43F5E"/>
      <stop offset="100%" stop-color="#BE123C"/>
    </linearGradient>
    <linearGradient id="windowGradient" x1="220" y1="180" x2="280" y2="240" gradientUnits="userSpaceOnUse">
      <stop offset="0%" stop-color="#38BDF8"/>
      <stop offset="100%" stop-color="#0EA5E9"/>
    </linearGradient>
     <linearGradient id="flameGradient" x1="256" y1="380" x2="256" y2="500" gradientUnits="userSpaceOnUse">
      <stop offset="0%" stop-color="#F59E0B"/>
      <stop offset="100%" stop-color="#EF4444"/>
    </linearGradient>
  </defs>

  <!-- Flame Inner Core -->
  <path d="M256 480C256 480 230 420 230 380H282C282 420 256 480 256 480Z" fill="#FEF08A"/>
  <!-- Flame Outer -->
  <path d="M256 500C256 500 210 420 210 370H302C302 420 256 500 256 500Z" fill="url(#flameGradient)" opacity="0.8"/>

  <!-- Left Fin -->
  <path d="M160 340 L220 260 L240 340 L200 420 Z" fill="url(#wingGradient)"/>
  
  <!-- Right Fin -->
  <path d="M352 340 L292 260 L272 340 L312 420 Z" fill="url(#wingGradient)"/>
  
  <!-- Center Body -->
  <path d="M256 20 C256 20 160 140 160 220 C160 340 200 380 200 380 H312 C312 380 352 340 352 220 C352 140 256 20 256 20Z" fill="url(#bodyGradient)"/>
  
  <!-- Center Fin -->
  <path d="M256 280 L230 400 H282 L256 280Z" fill="#9F1239"/>

  <!-- Window Ring -->
  <circle cx="256" cy="200" r="45" fill="#CBD5E1"/>
  <!-- Window Glass -->
  <circle cx="256" cy="200" r="35" fill="url(#windowGradient)"/>
  <!-- Window Reflection -->
  <path d="M265 190 Q275 190 280 185" stroke="white" stroke-width="4" stroke-linecap="round"/>
  
  <!-- Shadow/Shading -->
  <path d="M256 20 C256 20 352 140 352 220 C352 340 312 380 312 380 V 380 L256 380 V 20Z" fill="#000000" fill-opacity="0.05"/>
</svg>
